<?xml version="1.0" standalone="no"?>
<!DOCTYPE svg PUBLIC "-//W3C//DTD SVG 20010904//EN"
 "http://www.w3.org/TR/2001/REC-SVG-20010904/DTD/svg10.dtd">
<svg version="1.0" xmlns="http://www.w3.org/2000/svg"
 width="2400.000000pt" height="2400.000000pt" viewBox="0 0 2400.000000 2400.000000"
 preserveAspectRatio="xMidYMid meet">
<metadata>
Created by potrace 1.14, written by Peter Selinger 2001-2017
</metadata>
<g transform="translate(0.000000,2400.000000) scale(0.100000,-0.100000)"
fill="#000000" stroke="none">
<path d="M11580 17909 c-1488 -80 -2900 -576 -4008 -1409 -242 -182 -438 -353
-664 -582 l-208 -209 -472 116 c-260 64 -473 117 -474 118 -1 1 -52 110 -114
242 -164 349 -187 392 -236 445 -60 64 -140 104 -276 140 -395 103 -3991 971
-4026 972 -78 2 -132 -71 -105 -142 14 -36 2408 -4377 2471 -4480 62 -100 137
-174 214 -210 53 -25 874 -233 1636 -415 l112 -27 0 -101 c0 -127 14 -298 41
-490 204 -1500 1175 -2870 2664 -3764 594 -357 1228 -619 1930 -798 148 -38
209 -58 208 -67 -2 -8 -136 -335 -299 -728 -163 -393 -303 -736 -310 -762 -16
-60 -4 -108 37 -142 42 -35 66 -34 373 20 287 50 327 65 370 132 13 20 147
336 297 701 l273 663 66 -6 c477 -50 842 -64 1227 -48 259 11 528 31 638 47
l40 7 279 -675 c153 -371 289 -688 303 -706 42 -53 84 -67 362 -115 324 -56
332 -57 377 -12 33 33 38 50 34 111 -1 16 -139 360 -306 764 -167 404 -304
739 -304 745 0 6 87 32 193 58 2050 505 3701 1833 4360 3508 190 481 288 932
318 1461 6 112 12 205 13 205 0 1 262 66 581 144 1158 283 1123 273 1212 346
23 19 63 63 87 97 44 62 2488 4481 2509 4537 27 71 -26 144 -105 142 -24 0
-959 -224 -2078 -496 -2237 -545 -2130 -515 -2224 -616 -47 -50 -111 -173
-296 -572 l-55 -117 -452 -111 c-249 -62 -458 -110 -465 -108 -8 2 -60 53
-116 113 -198 211 -499 478 -757 672 -1230 921 -2814 1421 -4470 1411 -143 0
-325 -5 -405 -9z m820 -749 c939 -65 1791 -328 2561 -790 368 -221 649 -440
967 -754 159 -157 190 -192 175 -198 -10 -5 -558 -140 -1219 -302 -660 -162
-1229 -306 -1263 -320 -93 -37 -151 -78 -225 -156 -64 -68 -128 -166 -167
-257 -11 -26 -291 -700 -621 -1498 -330 -797 -603 -1453 -606 -1457 -4 -4
-270 631 -592 1410 -321 779 -602 1458 -624 1507 -57 131 -112 220 -184 296
-71 77 -130 118 -223 155 -35 15 -604 159 -1264 321 -660 162 -1201 296 -1204
298 -8 8 347 353 469 456 516 436 1095 764 1745 989 453 156 982 263 1485 299
168 12 622 12 790 1z m-9335 -290 c1810 -443 1751 -428 1818 -461 66 -34 158
-119 201 -187 26 -41 1672 -3528 1683 -3564 3 -12 0 -18 -10 -18 -22 0 -2454
596 -2513 616 -119 39 -229 118 -299 214 -44 60 -2025 3648 -2025 3667 0 9 7
12 18 9 9 -3 517 -127 1127 -276z m17216 -795 c-26 -194 -87 -315 -309 -619
-78 -106 -149 -211 -239 -353 -6 -10 6 29 27 87 21 58 70 197 110 310 82 234
176 436 245 528 27 35 75 87 109 115 72 59 73 57 57 -68z m300 -297 c22 -40 6
-159 -31 -234 -36 -73 -61 -101 -198 -217 l-91 -78 19 43 c25 55 25 93 0 118
-44 44 -112 11 -238 -116 l-93 -94 42 61 c81 115 253 324 333 405 119 119 228
167 257 112z m-897 -230 c37 -52 8 -207 -85 -457 l-54 -144 -7 84 c-12 157
-41 209 -116 209 -54 0 -116 -72 -196 -228 -71 -138 -69 -139 -45 31 27 196
122 373 245 458 96 66 228 90 258 47z m-11977 -507 c2294 -567 2136 -526 2223
-569 104 -51 213 -160 263 -262 48 -99 1427 -3439 1427 -3456 0 -8 -5 -14 -10
-14 -44 0 -1233 289 -3558 864 -57 14 -130 40 -163 57 -67 36 -150 112 -196
179 -22 33 -1674 3517 -1710 3608 -3 6 2 12 10 12 8 0 779 -189 1714 -419z
m12029 -222 c3 -6 -35 -98 -86 -204 l-92 -193 -178 -45 -177 -44 94 197 95
196 151 37 c89 22 156 43 162 52 12 18 21 19 31 4z m-163 -600 c-59 -101 -188
-218 -214 -192 -11 11 1 81 27 151 l16 42 25 -20 c14 -11 34 -20 45 -20 25 0
69 23 92 49 27 30 30 26 9 -10z m-546 -131 c10 -9 27 -18 38 -20 17 -3 10 -14
-45 -69 -36 -36 -81 -72 -100 -81 -33 -16 -35 -16 -39 -1 -2 10 23 69 55 131
55 108 59 113 66 85 4 -16 16 -37 25 -45z m212 -63 c-12 -84 -44 -157 -102
-233 -56 -71 -114 -128 -123 -119 -11 11 15 112 41 161 22 42 187 267 192 262
1 -1 -2 -33 -8 -71z m-3200 -391 c-39 -86 -69 -158 -67 -159 2 -2 239 54 528
125 288 71 525 128 526 127 1 -1 -88 -114 -198 -252 -110 -137 -205 -257 -211
-266 -8 -11 -146 -49 -432 -119 -231 -57 -425 -107 -431 -112 -6 -4 -42 -78
-79 -163 l-68 -154 -581 -144 c-320 -79 -583 -143 -585 -141 -2 1 25 71 59
154 35 82 61 152 58 155 -3 3 -234 -51 -513 -120 -280 -69 -512 -124 -516
-123 -4 2 78 111 183 243 105 132 199 251 209 263 16 20 74 37 401 118 211 51
399 98 418 103 34 10 37 16 99 166 35 85 64 155 65 155 4 2 1192 299 1198 299
3 1 -25 -69 -63 -155z m1216 -1556 c-134 -1250 -793 -2368 -1869 -3170 -443
-331 -990 -614 -1534 -794 -159 -53 -431 -129 -436 -122 -2 2 -211 507 -466
1123 -254 616 -469 1133 -477 1148 -8 16 -12 31 -9 34 6 7 243 65 2151 528
1976 480 1859 450 1916 481 56 31 116 87 157 146 16 24 91 173 167 331 76 158
143 291 149 295 14 9 214 60 239 61 17 1 18 -5 12 -61z m-10361 31 c50 -12 96
-26 103 -33 7 -6 74 -139 149 -296 75 -157 150 -304 166 -328 45 -66 107 -120
173 -152 44 -21 592 -158 2040 -510 1089 -264 1987 -484 1996 -488 13 -6 -61
-191 -457 -1147 -260 -627 -474 -1144 -476 -1149 -9 -21 -418 105 -683 209
-318 125 -557 243 -842 415 -1250 755 -2076 1953 -2262 3283 -24 167 -26 217
-10 217 6 0 53 -9 103 -21z m5451 -3428 c185 -447 334 -816 331 -818 -16 -17
-426 -43 -663 -43 -230 0 -675 29 -691 45 -2 2 148 373 335 824 186 451 341
817 345 813 4 -4 158 -373 343 -821z"/>
<path d="M3624 16638 c13 -29 139 -296 280 -592 141 -297 255 -540 254 -541
-2 -2 -336 79 -743 179 -407 100 -741 179 -743 175 -2 -4 153 -290 344 -636
l347 -628 696 -171 696 -170 290 -611 290 -610 679 -167 c374 -91 681 -164
683 -162 2 2 -125 278 -283 613 l-287 609 -675 164 c-371 91 -680 170 -687
175 -12 10 -588 1216 -583 1221 2 1 306 -73 676 -163 370 -91 675 -163 678
-160 3 3 -83 194 -191 424 -312 662 -287 613 -355 681 -104 105 -131 114 -780
272 -316 78 -583 143 -593 146 -15 5 -15 0 7 -48z"/>
<path d="M7504 15008 c7 -18 122 -285 255 -592 132 -308 240 -561 238 -562 -2
-2 -310 73 -687 166 -376 94 -684 169 -686 168 -1 -2 129 -282 290 -622 l292
-619 664 -165 665 -165 260 -604 c143 -333 263 -606 266 -609 12 -7 1234 -303
1237 -299 2 2 -107 270 -241 597 -135 326 -244 594 -243 595 2 2 278 -64 615
-147 336 -82 618 -150 625 -150 14 0 -474 1195 -497 1216 -7 6 -286 78 -622
158 -335 81 -616 150 -623 154 -7 4 -123 272 -257 597 -168 405 -249 592 -262
597 -22 9 -1277 318 -1292 318 -8 0 -7 -11 3 -32z m1791 -1489 c10 -10 495
-1193 490 -1197 -2 -3 -284 64 -625 149 l-621 154 -260 603 c-142 332 -259
604 -259 606 0 4 1269 -310 1275 -315z"/>
</g>
</svg>
